<?xml version="1.0" encoding="UTF-8"?>
<svg xmlns="http://www.w3.org/2000/svg" xmlns:v="https://vecta.io/nano" width="269" height="50" fill="none">
  <g clip-path="url(#A)">
    <path d="M35.287 0L24.942 13.515 14.597 0H.001L0 50h49.883V0H35.287z" fill="#055da9"></path>
    <path d="M106.693 0H56.811v16.711h49.883V0z" fill="#eb6209"></path>
    <g fill="#055da9">
      <path d="M146.891 50H97.008l24.941-50 24.942 50zm44.755-20.037v-6.916h1.179v1.052h.015c.191-.307.483-.584.876-.829s.839-.367 1.337-.367a2.7 2.7 0 0 1 1.416.375 2.59 2.59 0 0 1 .977 1.052c.235.451.353.975.353 1.57v4.063h-1.165V25.9c0-.557-.167-1.009-.503-1.354s-.762-.519-1.279-.519c-.575 0-1.056.202-1.445.605s-.582.918-.582 1.542v3.789h-1.179 0zm9.63-.338c-.541-.322-.97-.757-1.286-1.304s-.474-1.153-.474-1.815.158-1.268.474-1.815a3.57 3.57 0 0 1 1.286-1.304 3.44 3.44 0 0 1 1.79-.483 3.44 3.44 0 0 1 1.79.483 3.57 3.57 0 0 1 1.286 1.304c.316.547.474 1.153.474 1.815s-.158 1.268-.474 1.815a3.57 3.57 0 0 1-1.286 1.304 3.44 3.44 0 0 1-1.79.483 3.44 3.44 0 0 1-1.79-.483zm2.983-.965a2.33 2.33 0 0 0 .862-.893 2.55 2.55 0 0 0 .317-1.261 2.55 2.55 0 0 0-.317-1.261c-.21-.379-.498-.677-.862-.893s-.762-.324-1.193-.324-.829.108-1.193.324-.652.514-.862.893a2.54 2.54 0 0 0-.317 1.261 2.54 2.54 0 0 0 .317 1.261 2.33 2.33 0 0 0 .862.893c.364.216.762.324 1.193.324s.829-.108 1.193-.324zm8.754.965a3.57 3.57 0 0 1-1.287-1.304c-.316-.548-.474-1.153-.474-1.815s.158-1.268.474-1.815a3.57 3.57 0 0 1 1.287-1.304c.542-.322 1.138-.483 1.789-.483a3.44 3.44 0 0 1 1.79.483 3.57 3.57 0 0 1 1.286 1.304c.317.547.475 1.153.475 1.815s-.158 1.268-.475 1.815a3.57 3.57 0 0 1-1.286 1.304c-.542.322-1.138.483-1.79.483a3.43 3.43 0 0 1-1.789-.483zm2.982-.965a2.34 2.34 0 0 0 .863-.893 2.55 2.55 0 0 0 .316-1.261 2.55 2.55 0 0 0-.316-1.261c-.211-.379-.499-.677-.863-.893s-.761-.324-1.193-.324-.829.108-1.193.324-.652.514-.862.893a2.55 2.55 0 0 0-.316 1.261 2.55 2.55 0 0 0 .316 1.261 2.33 2.33 0 0 0 .862.893c.364.216.762.324 1.193.324s.829-.108 1.193-.324zm5.356 3.875c-.551-.303-.946-.632-1.186-.987l.834-.764c.182.269.472.516.87.742a2.51 2.51 0 0 0 1.257.339c.671 0 1.21-.226 1.618-.677s.611-1.037.611-1.758v-.807h-.015c-.22.336-.541.619-.963.85s-.877.346-1.365.346c-.556 0-1.074-.149-1.553-.447s-.86-.711-1.142-1.239-.424-1.119-.424-1.772.141-1.244.424-1.772a3.2 3.2 0 0 1 1.142-1.239 2.89 2.89 0 0 1 1.553-.447 2.7 2.7 0 0 1 1.416.375c.417.25.72.524.912.821h.015v-1.052h1.178v6.383c0 .672-.146 1.28-.438 1.823a3.23 3.23 0 0 1-1.215 1.275c-.518.307-1.102.461-1.753.461a3.63 3.63 0 0 1-1.776-.454h0zm2.94-4.142a2.19 2.19 0 0 0 .776-.829c.192-.351.288-.751.288-1.203s-.096-.852-.288-1.203a2.19 2.19 0 0 0-.776-.828c-.326-.202-.69-.303-1.093-.303-.383 0-.738.101-1.063.303s-.585.48-.776.836-.288.754-.288 1.196.096.84.288 1.196.45.634.776.836a1.98 1.98 0 0 0 1.063.303c.403 0 .767-.101 1.093-.303zm6.168-6.974c-.148-.144-.223-.322-.223-.533s.075-.389.223-.533a.73.73 0 0 1 .525-.216.71.71 0 0 1 .51.216.71.71 0 0 1 .223.533.71.71 0 0 1-.223.533.71.71 0 0 1-.51.216.73.73 0 0 1-.525-.216zm4.703 8.206a3.59 3.59 0 0 1-1.28-1.304c-.316-.548-.474-1.153-.474-1.815s.158-1.268.474-1.815a3.59 3.59 0 0 1 1.28-1.304 3.37 3.37 0 0 1 1.768-.483c.642 0 1.21.142 1.703.425s.879.608 1.157.973l-.848.72c-.23-.279-.513-.514-.848-.706s-.724-.288-1.164-.288a2.22 2.22 0 0 0-1.179.324 2.38 2.38 0 0 0-.848.893 2.55 2.55 0 0 0-.316 1.261 2.55 2.55 0 0 0 .316 1.261 2.37 2.37 0 0 0 .848.893 2.22 2.22 0 0 0 1.179.324c.44 0 .836-.098 1.186-.295a2.95 2.95 0 0 0 .869-.728l.863.72c-.297.384-.697.718-1.2 1.001s-1.076.425-1.718.425-1.231-.161-1.768-.483h0zm7.604.338h-1.178V19.878h1.178v6.656l3.235-3.487h1.48l-2.63 2.81 2.889 4.106h-1.366l-2.299-3.271-1.308 1.398v1.873h-.001zm10.466-6.714a2.49 2.49 0 0 1 .985.958c.234.408.352.872.352 1.39v4.366h-1.136v-1.052h-.014c-.182.307-.484.584-.906.828a2.79 2.79 0 0 1-1.423.367c-.45 0-.853-.091-1.207-.274s-.631-.425-.827-.728a1.78 1.78 0 0 1-.294-.987 1.93 1.93 0 0 1 .575-1.434c.383-.379.92-.627 1.61-.742l2.443-.403v-.029c0-.442-.151-.807-.453-1.095s-.687-.432-1.157-.432c-.383 0-.726.087-1.028.259s-.582.403-.84.692l-.762-.735c.306-.365.68-.672 1.121-.922s.944-.375 1.509-.375c.546 0 1.03.115 1.452.346h0zm-.891 5.533a2.09 2.09 0 0 0 .769-.785c.187-.331.28-.699.28-1.102v-.389l-2.156.375c-.431.077-.755.216-.97.418s-.324.442-.324.72c0 .288.122.536.367.742s.563.31.956.31.752-.096 1.078-.288zm.075-6.916h-.949l1.078-1.96h1.308l-1.437 1.96zm-46.25-1.988v1.066h2.191v9.019h1.179V19.878h-3.37zm21.963 3.169v1.067h2.191v5.849h1.179v-6.916h-3.37zm-64.442 6.916h-1.293v-8.89h-3.105v-1.196h7.518v1.196h-3.12v8.89zm4.733-.338a3.59 3.59 0 0 1-1.28-1.304c-.316-.548-.474-1.153-.474-1.815 0-.672.156-1.282.467-1.83s.731-.98 1.258-1.297 1.102-.475 1.725-.475a3.26 3.26 0 0 1 1.681.447 3.17 3.17 0 0 1 1.194 1.232 3.64 3.64 0 0 1 .431 1.779c0 .154-.014.346-.043.576h-5.491a2.3 2.3 0 0 0 .776 1.455 2.29 2.29 0 0 0 1.581.591c.757 0 1.433-.317 2.027-.951l.79.735c-.277.365-.663.68-1.157.944s-1.066.396-1.717.396a3.37 3.37 0 0 1-1.768-.483h0zm3.794-3.667c-.095-.605-.328-1.085-.697-1.441s-.836-.533-1.401-.533c-.585 0-1.078.185-1.481.555s-.656.843-.761 1.419h4.34zm4.61 3.667a3.58 3.58 0 0 1-1.279-1.304 3.56 3.56 0 0 1-.475-1.815c0-.662.158-1.268.475-1.815a3.58 3.58 0 0 1 1.279-1.304c.537-.322 1.126-.483 1.768-.483s1.21.142 1.703.425.879.608 1.157.973l-.848.72c-.23-.279-.513-.514-.848-.706s-.724-.288-1.164-.288c-.431 0-.824.108-1.179.324a2.38 2.38 0 0 0-.848.893 2.55 2.55 0 0 0-.316 1.261 2.55 2.55 0 0 0 .316 1.261 2.38 2.38 0 0 0 .848.893c.355.216.748.324 1.179.324.44 0 .836-.098 1.186-.295s.639-.439.87-.728l.862.72c-.297.384-.697.718-1.2 1.001s-1.076.425-1.718.425-1.231-.161-1.768-.483h0zm6.477.338V19.878h1.178v4.221h.015c.191-.307.483-.583.876-.828s.839-.368 1.337-.368a2.7 2.7 0 0 1 1.416.375c.417.25.743.601.978 1.052s.352.975.352 1.57v4.063h-1.165V25.9c0-.557-.167-1.008-.503-1.354s-.761-.519-1.279-.519a1.92 1.92 0 0 0-1.444.605c-.389.403-.583.917-.583 1.542v3.789h-1.178 0zm-22.675 18.159h-1.337l4.068-10.086h1.409l4.067 10.086h-1.38l-1.092-2.709h-4.657l-1.078 2.709h0zm3.392-8.558l-1.84 4.639h3.709l-1.84-4.639h-.029 0zm7.801 8.558h-1.178V38.036h1.178v6.656l3.235-3.487h1.48l-2.63 2.81 2.889 4.106h-1.366l-2.3-3.271-1.308 1.398v1.873h0zm10.581-6.714a2.49 2.49 0 0 1 .985.958c.234.408.352.872.352 1.391v4.365h-1.136V47.07h-.014c-.182.308-.484.584-.906.829a2.78 2.78 0 0 1-1.423.367c-.45 0-.853-.091-1.207-.274s-.631-.425-.827-.728a1.78 1.78 0 0 1-.294-.987c0-.576.191-1.054.575-1.434s.92-.627 1.61-.742l2.443-.404v-.029c0-.442-.151-.807-.453-1.095s-.687-.432-1.157-.432c-.383 0-.726.087-1.028.259a3.38 3.38 0 0 0-.84.692l-.762-.735c.306-.365.68-.672 1.121-.922s.944-.375 1.509-.375c.546 0 1.03.115 1.452.346h0zm-.891 5.533a2.09 2.09 0 0 0 .769-.785c.187-.331.28-.699.28-1.102v-.389l-2.156.375c-.431.077-.755.216-.97.418s-.324.442-.324.721c0 .288.122.536.367.742s.563.31.956.31.752-.096 1.078-.288h0zm5.718.856c-.493-.312-.889-.742-1.186-1.29s-.445-1.162-.445-1.844.148-1.297.445-1.844.693-.977 1.186-1.289 1.028-.468 1.603-.468c.565 0 1.068.127 1.509.382s.757.54.949.857h.014v-4.265h1.179v10.086h-1.179v-1.095h-.014c-.192.317-.508.603-.949.857s-.944.382-1.509.382c-.575 0-1.109-.156-1.603-.468h0zm2.94-.98a2.37 2.37 0 0 0 .826-.886c.206-.375.309-.797.309-1.268s-.103-.893-.309-1.268a2.37 2.37 0 0 0-.826-.886 2.1 2.1 0 0 0-1.136-.324c-.402 0-.776.108-1.121.324a2.37 2.37 0 0 0-.827.886c-.206.375-.309.797-.309 1.268s.103.893.309 1.268a2.37 2.37 0 0 0 .827.886c.345.216.719.324 1.121.324a2.1 2.1 0 0 0 1.136-.324zm5.874.966a3.59 3.59 0 0 1-1.28-1.304c-.316-.547-.474-1.153-.474-1.815 0-.672.156-1.282.467-1.83s.731-.98 1.258-1.297 1.102-.475 1.725-.475c.613 0 1.174.149 1.682.447a3.18 3.18 0 0 1 1.193 1.232 3.64 3.64 0 0 1 .431 1.779c0 .154-.014.346-.043.576h-5.491c.077.576.335 1.061.776 1.455a2.29 2.29 0 0 0 1.581.591c.757 0 1.433-.317 2.027-.951l.791.735c-.278.365-.664.68-1.158.944s-1.066.396-1.717.396a3.37 3.37 0 0 1-1.768-.483h0zm3.795-3.667c-.096-.605-.329-1.085-.698-1.441s-.836-.533-1.401-.533c-.585 0-1.078.185-1.481.555s-.656.843-.761 1.419h4.341 0zm3.016 4.006v-6.916h1.178v1.023h.015c.144-.298.395-.567.754-.807s.779-.36 1.258-.36a2.39 2.39 0 0 1 1.366.396c.393.264.67.56.833.886h.029c.153-.327.439-.622.855-.886s.918-.396 1.503-.396a2.34 2.34 0 0 1 1.272.367c.388.245.694.591.92 1.037s.337.963.337 1.549v4.106h-1.164v-4.106c0-.557-.153-1.001-.46-1.333a1.5 1.5 0 0 0-1.15-.497c-.517 0-.946.19-1.286.569s-.51.886-.51 1.52v3.847h-1.179v-4.106c0-.557-.154-1.001-.46-1.333s-.686-.497-1.136-.497c-.517 0-.946.19-1.287.569s-.51.886-.51 1.52v3.847h-1.178 0zm13.525-8.544c-.148-.144-.223-.322-.223-.533s.075-.389.223-.533a.73.73 0 0 1 .525-.216.71.71 0 0 1 .733.749.71.71 0 0 1-.733.749.73.73 0 0 1-.525-.216zm4.769 8.205a3.58 3.58 0 0 1-1.279-1.304c-.316-.547-.474-1.153-.474-1.815 0-.672.155-1.282.467-1.83a3.51 3.51 0 0 1 1.257-1.297c.527-.317 1.102-.475 1.725-.475.613 0 1.174.149 1.682.447a3.17 3.17 0 0 1 1.193 1.232c.287.523.432 1.117.432 1.779 0 .154-.015.346-.044.576h-5.491c.077.576.336 1.061.777 1.455a2.29 2.29 0 0 0 1.581.591c.757 0 1.432-.317 2.027-.951l.79.735c-.278.365-.664.68-1.157.944s-1.066.396-1.718.396c-.642 0-1.231-.161-1.768-.483h0zm3.795-3.667c-.096-.605-.328-1.085-.697-1.441s-.836-.533-1.402-.533c-.584 0-1.078.185-1.48.555s-.657.843-.762 1.419h4.341 0zm-10.703-2.91v1.067h2.191v5.849h1.179v-5.849-1.067h-3.37zm33.19-29.386h-5.678v-1.124l4.054-4.668h-3.91V4.904h5.39v1.124l-4.053 4.668h4.197v1.124h0zm2.595-.238c-.469-.254-.829-.545-1.078-.872l.776-.764c.211.24.482.456.813.648a2.07 2.07 0 0 0 1.056.288c.441 0 .786-.101 1.035-.303s.374-.451.374-.749c0-.259-.12-.459-.36-.598s-.613-.286-1.121-.439a9.54 9.54 0 0 1-1.178-.425c-.307-.139-.568-.341-.784-.605s-.323-.607-.323-1.03c0-.346.1-.67.302-.972s.486-.545.855-.728.793-.274 1.272-.274a3.12 3.12 0 0 1 1.373.288c.397.192.721.418.97.677l-.776.764a2.65 2.65 0 0 0-.676-.454 2.02 2.02 0 0 0-.891-.194c-.393 0-.699.086-.92.259a.78.78 0 0 0-.33.634.63.63 0 0 0 .352.576c.235.135.601.274 1.099.418.479.144.875.286 1.186.425s.578.346.798.62.331.627.331 1.059c0 .384-.106.74-.317 1.066a2.19 2.19 0 0 1-.905.778c-.393.192-.848.288-1.366.288a3.23 3.23 0 0 1-1.567-.382h0zm7.175.238h-1.178V1.734h1.178V8.39l3.234-3.487h1.481l-2.631 2.81 2.89 4.106h-1.366l-2.3-3.271-1.308 1.398v1.873h0zm10.466-6.714a2.5 2.5 0 0 1 .984.958c.235.408.352.872.352 1.39v4.366h-1.135v-1.052h-.014c-.183.308-.484.584-.906.829a2.78 2.78 0 0 1-1.423.367c-.451 0-.853-.091-1.207-.274s-.631-.425-.827-.728-.295-.632-.295-.987c0-.576.192-1.054.575-1.434s.92-.627 1.61-.742l2.444-.403v-.029c0-.442-.151-.807-.453-1.095s-.688-.432-1.157-.432c-.383 0-.726.086-1.028.259a3.4 3.4 0 0 0-.841.692l-.761-.735c.306-.365.68-.672 1.121-.922s.943-.375 1.509-.375c.546 0 1.03.115 1.452.346h0zm-.892 5.533c.326-.192.583-.454.769-.785s.281-.699.281-1.102v-.389l-2.156.375c-.432.077-.755.216-.971.418a.95.95 0 0 0-.323.72c0 .288.122.536.366.742s.563.31.956.31a2.08 2.08 0 0 0 1.078-.288zm0-6.916h-.948l1.078-1.959h1.308l-1.438 1.959zm-42.469 7.859c-.47-.254-.829-.545-1.078-.872l.776-.764a3.23 3.23 0 0 0 .812.648 2.07 2.07 0 0 0 1.057.288c.44 0 .785-.101 1.034-.303s.374-.451.374-.749c0-.259-.12-.459-.359-.598s-.613-.286-1.121-.439c-.48-.144-.873-.286-1.179-.425a2.13 2.13 0 0 1-.783-.605c-.216-.264-.324-.607-.324-1.03 0-.346.101-.67.302-.972s.486-.545.855-.728.793-.274 1.272-.274c.518 0 .976.096 1.373.288s.721.418.97.677l-.776.764c-.182-.173-.407-.324-.675-.454s-.566-.194-.892-.194c-.393 0-.699.086-.92.259a.78.78 0 0 0-.33.634.63.63 0 0 0 .352.576c.235.135.601.274 1.1.418.479.144.874.286 1.186.425a2.13 2.13 0 0 1 .797.62c.221.274.331.627.331 1.059 0 .384-.106.74-.316 1.066s-.513.586-.906.778-.848.288-1.365.288c-.575 0-1.098-.127-1.567-.382h0zm10.939-.101a3.59 3.59 0 0 1-1.28-1.304c-.316-.548-.474-1.153-.474-1.815 0-.672.156-1.282.467-1.83s.731-.98 1.258-1.297 1.102-.475 1.725-.475c.613 0 1.174.149 1.682.447a3.17 3.17 0 0 1 1.193 1.232 3.64 3.64 0 0 1 .431 1.779c0 .154-.014.346-.043.576h-5.491a2.3 2.3 0 0 0 .776 1.455 2.29 2.29 0 0 0 1.581.591c.757 0 1.433-.317 2.027-.951l.791.735c-.278.365-.664.68-1.157.944s-1.066.396-1.718.396c-.642 0-1.231-.161-1.768-.483h0zm3.795-3.667c-.096-.605-.329-1.085-.697-1.441s-.837-.533-1.402-.533c-.584 0-1.078.185-1.48.555s-.657.843-.762 1.419h4.341zm-10.736-6.08v1.067h2.191v9.019h1.178V1.734h-3.369zm-11.906 9.747c-.541-.322-.97-.756-1.286-1.304s-.474-1.153-.474-1.815.158-1.268.474-1.815a3.57 3.57 0 0 1 1.286-1.304 3.44 3.44 0 0 1 1.79-.483 3.44 3.44 0 0 1 1.79.483 3.57 3.57 0 0 1 1.286 1.304 3.56 3.56 0 0 1 .475 1.815c0 .662-.158 1.268-.475 1.815a3.57 3.57 0 0 1-1.286 1.304c-.542.322-1.138.483-1.79.483a3.44 3.44 0 0 1-1.79-.483zm2.983-.965a2.34 2.34 0 0 0 .863-.893 2.56 2.56 0 0 0 .316-1.261 2.56 2.56 0 0 0-.316-1.261c-.211-.379-.499-.677-.863-.893s-.762-.324-1.193-.324-.829.108-1.193.324-.652.514-.862.893a2.55 2.55 0 0 0-.317 1.261 2.55 2.55 0 0 0 .317 1.261 2.33 2.33 0 0 0 .862.893c.364.216.762.324 1.193.324s.829-.108 1.193-.324zm-10.469 1.304h-1.179V1.734h1.179V8.39l3.234-3.487h1.481l-2.631 2.81 2.889 4.106h-1.365l-2.3-3.271-1.308 1.398v1.873h0zm-7.302-.238c-.469-.254-.829-.545-1.078-.872l.777-.764c.21.24.481.456.812.648a2.07 2.07 0 0 0 1.056.288c.441 0 .786-.101 1.035-.303s.374-.451.374-.749c0-.259-.12-.459-.36-.598s-.613-.286-1.121-.439a9.54 9.54 0 0 1-1.178-.425c-.307-.139-.568-.341-.784-.605s-.323-.607-.323-1.03c0-.346.1-.67.302-.972s.486-.545.855-.728.793-.274 1.272-.274a3.12 3.12 0 0 1 1.373.288c.397.192.721.418.97.677l-.776.764a2.65 2.65 0 0 0-.676-.454 2.02 2.02 0 0 0-.891-.194c-.393 0-.699.086-.92.259a.78.78 0 0 0-.33.634.63.63 0 0 0 .352.576c.235.135.601.274 1.099.418.479.144.875.286 1.186.425s.578.346.798.62.331.627.331 1.059c0 .384-.106.74-.317 1.066a2.19 2.19 0 0 1-.905.778c-.393.192-.848.288-1.366.288a3.23 3.23 0 0 1-1.567-.382h0zm-4.825.238h-1.294l-2.759-6.916h1.279l2.141 5.518h.029l2.142-5.518h1.222l-2.76 6.916h0zm-6.544-6.714a2.49 2.49 0 0 1 .985.958c.234.408.352.872.352 1.39v4.366h-1.136v-1.052h-.014c-.182.308-.484.584-.906.829a2.78 2.78 0 0 1-1.423.367c-.451 0-.853-.091-1.207-.274s-.631-.425-.827-.728a1.78 1.78 0 0 1-.294-.987c0-.576.191-1.054.575-1.434s.92-.627 1.61-.742l2.443-.403v-.029c0-.442-.151-.807-.453-1.095s-.687-.432-1.157-.432c-.383 0-.726.086-1.028.259a3.4 3.4 0 0 0-.841.692l-.761-.735c.306-.365.68-.672 1.121-.922s.944-.375 1.509-.375c.546 0 1.03.115 1.452.346h0zm-.891 5.533a2.09 2.09 0 0 0 .769-.785c.187-.331.28-.699.28-1.102v-.389l-2.156.375c-.431.077-.755.216-.971.418a.95.95 0 0 0-.323.72c0 .288.122.536.367.742s.562.31.955.31.753-.096 1.079-.288zm-5.098-5.879c-.489 0-.927.118-1.315.353s-.678.502-.87.8h-.014V4.904h-2.452v1.067h1.273v5.849h1.179V8.175c0-.422.093-.804.28-1.145a2.12 2.12 0 0 1 .747-.8 1.92 1.92 0 0 1 1.028-.288 4.5 4.5 0 0 1 .475.043V4.76h-.331 0zm-23.666 7.06h-1.294V1.734h1.179l3.996 5.244h.029l4.01-5.244h1.136V11.82h-1.294V3.996h-.043l-3.838 5.014-3.824-5.014h-.057v7.823h0zm12.594-.339a3.57 3.57 0 0 1-1.287-1.304c-.316-.548-.474-1.153-.474-1.815s.158-1.268.474-1.815a3.57 3.57 0 0 1 1.287-1.304c.541-.322 1.138-.483 1.789-.483a3.44 3.44 0 0 1 1.79.483 3.57 3.57 0 0 1 1.286 1.304 3.56 3.56 0 0 1 .475 1.815c0 .662-.158 1.268-.475 1.815a3.57 3.57 0 0 1-1.286 1.304c-.542.322-1.138.483-1.79.483a3.43 3.43 0 0 1-1.789-.483zm2.982-.965c.365-.216.652-.514.863-.893a2.55 2.55 0 0 0 .316-1.261 2.55 2.55 0 0 0-.316-1.261c-.211-.379-.498-.677-.863-.893s-.761-.324-1.193-.324-.829.108-1.193.324a2.34 2.34 0 0 0-.862.893 2.55 2.55 0 0 0-.316 1.261 2.55 2.55 0 0 0 .316 1.261 2.34 2.34 0 0 0 .862.893c.364.216.762.324 1.193.324s.829-.108 1.193-.324z"></path>
    </g>
  </g>
  <defs>
    <clipPath id="A">
      <path fill="#fff" d="M0 0h269v50H0z"></path>
    </clipPath>
  </defs>
</svg>
